<svg xmlns="http://www.w3.org/2000/svg" viewBox="0 0 64 64" fill="none">
  <defs>
    <linearGradient id="g1" x1="0%" y1="0%" x2="100%" y2="100%">
      <stop offset="0%" style="stop-color:#00b4d8"/>
      <stop offset="100%" style="stop-color:#48cae4"/>
    </linearGradient>
    <linearGradient id="g2" x1="0%" y1="0%" x2="100%" y2="100%">
      <stop offset="0%" style="stop-color:#0a1628"/>
      <stop offset="100%" style="stop-color:#1a365d"/>
    </linearGradient>
  </defs>
  <rect width="64" height="64" rx="14" fill="url(#g2)"/>
  <rect x="3" y="3" width="58" height="58" rx="12" fill="none" stroke="url(#g1)" stroke-width="1.5" opacity="0.4"/>
  <!-- T letter -->
  <rect x="14" y="14" width="36" height="7" rx="3.5" fill="url(#g1)"/>
  <rect x="28" y="19" width="8" height="30" rx="4" fill="url(#g1)"/>
  <rect x="26" y="44" width="12" height="6" rx="3" fill="url(#g1)" opacity="0.6"/>
  <!-- Sparkle -->
  <g transform="translate(48, 16)">
    <path d="M0 -5 L1.2 -1.2 L5 0 L1.2 1.2 L0 5 L-1.2 1.2 L-5 0 L-1.2 -1.2Z" fill="#fff" opacity="0.9"/>
  </g>
  <g transform="translate(16, 20)">
    <path d="M0 -3 L0.8 -0.8 L3 0 L0.8 0.8 L0 3 L-0.8 0.8 L-3 0 L-0.8 -0.8Z" fill="#48cae4" opacity="0.7"/>
  </g>
</svg>
